21.Jump.Street.2012.R5.LiNE.READNFO.XviD-BiDA

 
http://www.imdb.com/title/tt1232829/


Format                                   : AVI
 Format/Info                              : Audio Video Interleave
 File size                                : 701 MiB
 Duration                                 : 1h 45mn
 Overall bit rate                         : 930 Kbps
 Writing application                      : VirtualDubMod 1.5.10.3 | www.virtualdub-fr.org || (build 2550/release)
 Writing library                          : VirtualDub build 32842/release

 Video
 ID                                       : 0
 Format                                   : MPEG-4 Visual
 Format profile                           : Advanced Simple@L5
 Format settings, BVOP                    : 1
 Format settings, QPel                    : No
 Format settings, GMC                     : No warppoints
 Format settings, Matrix                  : Custom
 Codec ID                                 : XVID
 Codec ID/Hint                            : XviD
 Duration                                 : 1h 45mn
 Bit rate                                 : 792 Kbps
 Width                                    : 672 pixels
 Height                                   : 272 pixels
 Display aspect ratio                     : 2.471
 Frame rate                               : 25.000 fps
 Color space                              : YUV
 Chroma subsampling                       : 4:2:0
 Bit depth                                : 8 bits
 Scan type                                : Progressive
 Compression mode                         : Lossy
 Bits/(Pixel*Frame)                       : 0.173
 Stream size                              : 597 MiB (85%)
 Writing library                          : XviD 1.2.1 (UTC 2008-12-04)

 Audio
 ID                                       : 1
 Format                                   : MPEG Audio
 Format version                           : Version 1
 Format profile                           : Layer 3
 Codec ID                                 : 55
 Codec ID/Hint                            : MP3
 Duration                                 : 1h 45mn
 Bit rate mode                            : Constant
 Bit rate                                 : 128 Kbps
 Channel(s)                               : 2 channels
 Sampling rate                            : 44.1 KHz
 Compression mode                         : Lossy
 Stream size                              : 96.6 MiB (14%)
 Alignment                                : Split accross interleaves
 Interleave, duration                     : 40 ms (1.00 video frame)
 Interleave, preload duration             : 500 ms